# xmcd
#
# Track frame offsets:
#	150
#	16168
#	33062
#	49045
#	65786
#	88377
#	106019
#	124402
#	137651
#	162967
#	180080
#	204080
#	222192
#	243063
#	261798
#	278335
#
# Disc length: 4152 seconds
#
# Revision: 4
# Processed by: cddbd v1.5.2PL0 Copyright (c) Steve Scherf et al.
# Submitted via: EasyCDDAExtractor 12.0.1.1
#
DISCID=cc103610
DTITLE=Kinks - Best Of 1977-1986
DYEAR=2004
DGENRE=Blues
TTITLE0=You Really Got Me Now
TTITLE1=Destroyer
TTITLE2=Superman
TTITLE3=Jukebox Music
TTITLE4=Rock and Roll Fantasy
TTITLE5=Come Dancing
TTITLE6=Standing In The Middle Of Nowhere
TTITLE7=Better Things
TTITLE8=Lola
TTITLE9=Long Body
TTITLE10=Long Distance
TTITLE11=Hard of Gold
TTITLE12=Don't Forget To Dance
TTITLE13=Livin' This Way
TTITLE14=Father Christmas
TTITLE15=Hollywood Bouleward
EXTD=
EXTT0=
EXTT1=
EXTT2=
EXTT3=
EXTT4=
EXTT5=
EXTT6=
EXTT7=
EXTT8=
EXTT9=
EXTT10=
EXTT11=
EXTT12=
EXTT13=
EXTT14=
EXTT15=
PLAYORDER=
